<svg width="287" height="37" viewBox="0 0 287 37" fill="none" xmlns="http://www.w3.org/2000/svg">
<path d="M105.53 1.09813C104.27 1.30132 102.868 2.37826 102.259 3.59743L101.73 4.6134L101.669 13.6353L101.609 22.6571L100.897 23.4902C99.0889 25.6035 98.5403 28.3059 99.3937 30.9475C100.511 34.4221 104.413 36.6369 107.948 35.8038C110.387 35.2349 112.114 33.9141 113.13 31.8415C113.597 30.8662 113.719 30.3176 113.78 28.8139C113.882 26.5178 113.414 25.1361 112.073 23.6528L111.179 22.6368V13.9401C111.179 8.55539 111.098 4.93851 110.976 4.47117C110.346 2.19538 107.887 0.671418 105.53 1.09813ZM108.253 2.58145C108.72 2.86592 109.33 3.43487 109.594 3.84126L110.061 4.6134L110.122 13.8385L110.183 23.0838L110.996 23.9576C113.577 26.7617 113.434 30.9068 110.671 33.3249C109.371 34.4628 107.4 35.0927 105.774 34.8895C102.259 34.4628 99.7391 31.3945 100.064 27.9402C100.227 26.3146 100.714 25.2174 101.852 23.9373L102.746 22.9213L102.848 13.6759C102.929 7.15334 103.011 4.28829 103.193 4.00382C103.539 3.39423 104.514 2.54081 105.083 2.29698C106.018 1.93123 107.318 2.03282 108.253 2.58145Z" fill="#004A74"/>
<path d="M105.286 4.67432L104.839 5.04007L104.86 14.4277L104.9 23.8356L104.433 24.2217C102.685 25.6847 102.34 26.0301 102.015 26.7616C101.243 28.4685 101.791 30.9881 103.214 32.1869C105.347 33.9751 108.944 33.5687 110.427 31.3742C111.992 29.0781 111.443 26.3552 109.066 24.689L108.131 24.0185V14.6106C108.131 3.9225 108.192 4.30857 106.627 4.30857C106.079 4.30857 105.571 4.4508 105.286 4.67432Z" fill="#004A74"/>
<path d="M275.272 0.678694C273.446 1.34529 271.968 2.67849 271.07 4.5044C270.548 5.60574 270.432 6.27234 270.432 8.85179C270.432 11.7501 270.49 12.0109 271.418 13.9237C272.229 15.5758 273.099 16.6191 275.997 19.4884C280.054 23.488 281.011 25.0241 281.011 27.6325C281.011 30.125 280.199 31.1394 278.229 31.1684C276.142 31.1684 275.272 29.8062 275.214 26.4442V25.3719H272.751H270.287V27.8064C270.287 31.864 271.505 34.1536 274.316 35.4578C275.533 36.0375 276.432 36.2114 277.968 36.2114C280.953 36.2404 282.634 35.6607 284.257 34.0377C286.083 32.2118 286.634 30.3859 286.46 26.5602C286.315 22.4736 285.648 21.2853 280.837 16.3873C276.808 12.2717 275.823 10.7936 275.794 8.76484C275.794 6.41725 276.779 5.25795 278.808 5.31591C280.141 5.34489 280.837 6.27234 281.156 8.44603L281.446 10.3589H283.909H286.373L286.46 9.57635C286.605 8.44603 285.996 5.171 285.445 4.09864C284.808 2.79442 283.648 1.63512 282.315 0.939537C280.663 0.0990414 277.301 -0.0458717 275.272 0.678694Z" fill="#004A74"/>
<path d="M158.907 0.939585C158.878 0.968567 158.878 8.82285 158.936 18.3871L158.994 35.8057H166.385H173.775V33.3421V30.8786L169.08 30.8207L164.356 30.7337L164.269 25.4299L164.211 20.1551H167.979H171.746V17.5466V14.9382H167.979H164.211V10.4459V5.95358H168.993H173.775V3.49005V1.05552L166.356 0.968567C162.269 0.910602 158.936 0.910602 158.907 0.939585Z" fill="#004A74"/>
<path d="M177.079 0.997622C177.021 1.05559 176.963 8.93886 176.963 18.4741V35.8057H179.716H182.47V28.2703V20.7348H183.745C185.629 20.7348 186.701 21.2275 187.223 22.3288C187.6 23.0824 187.687 24.4156 187.716 28.618C187.745 31.5163 187.832 34.2986 187.948 34.7913L188.121 35.6608L190.991 35.7478L193.86 35.8347L193.628 35.1681C193.512 34.7913 193.338 31.6322 193.222 28.1253C193.048 22.2129 192.991 21.6332 192.382 20.358C192.005 19.6045 191.483 18.8509 191.223 18.706C189.86 17.9524 189.86 17.9235 190.846 17.112C192.672 15.5469 193.048 14.3876 193.048 10.1561C193.048 7.1999 192.933 6.09856 192.527 5.0262C191.86 3.28725 190.121 1.75117 188.295 1.31643C187.02 1.02661 177.34 0.736779 177.079 0.997622ZM186.701 6.64923C187.455 7.25787 187.513 7.51871 187.629 9.92427C187.832 14.2717 187.136 15.402 184.093 15.7208L182.47 15.8947V10.9097V5.95365H184.18C185.571 5.95365 186.064 6.09856 186.701 6.64923Z" fill="#004A74"/>
<path d="M231.566 0.968638L228.06 1.05559L227.683 3.28725C227.509 4.50452 226.321 11.8371 225.045 19.5755C223.799 27.3138 222.669 34.1247 222.582 34.7334L222.408 35.8347L224.987 35.7478L227.538 35.6608L227.857 33.632C228.06 32.5017 228.291 30.9656 228.378 30.2121L228.581 28.8209L231.682 28.9079L234.784 28.9948L235.131 31.4583C235.305 32.8205 235.537 34.3566 235.653 34.8493L235.827 35.8057H238.406C239.827 35.8057 241.044 35.6898 241.131 35.5739C241.334 35.2261 235.682 1.37439 235.363 1.11355C235.218 0.99762 233.479 0.910672 231.566 0.968638ZM232.755 14.9672C233.305 18.8509 233.827 22.5317 233.914 23.1114L234.059 24.2127H231.798C230.552 24.2127 229.451 24.1547 229.393 24.0678C229.306 24.0098 229.741 20.5029 230.32 16.3294C230.929 12.1269 231.422 8.44615 231.451 8.15632C231.48 6.59126 231.856 8.56208 232.755 14.9672Z" fill="#004A74"/>
<path d="M241.189 0.997466C241.102 1.1134 241.566 4.53334 242.174 8.59091C242.812 12.6485 244 20.2999 244.783 25.6327C245.594 30.9655 246.319 35.4288 246.406 35.5737C246.608 35.8925 253.39 35.8635 253.593 35.5447C253.709 35.3998 254.347 31.3133 255.071 26.4732C255.796 21.6621 256.897 14.3584 257.535 10.3009C258.144 6.24332 258.694 2.4466 258.752 1.89593L258.839 0.881535L256.55 0.794587C255.274 0.736622 254.144 0.82357 254.028 0.939501C253.912 1.05543 253.072 6.70704 252.173 13.489C251.275 20.2709 250.463 26.1254 250.376 26.5311C250.173 27.3137 250.231 27.6325 248.087 11.6051C247.362 6.01146 246.695 1.28729 246.637 1.08441C246.522 0.678657 241.45 0.562727 241.189 0.997466Z" fill="#004A74"/>
<path d="M261.65 18.1841L261.737 35.6606H264.346H266.954V18.2711V0.881515L264.259 0.794568L261.592 0.70762L261.65 18.1841Z" fill="#004A74"/>
<path d="M118.128 3.49006V5.95358H121.027H123.925V20.8796V35.8057H126.678H129.432V20.8796V5.95358H132.33H135.228V3.49006V1.02653H126.678H118.128V3.49006Z" fill="#004A74"/>
<path d="M137.837 18.4161V35.8057H140.59H143.343V27.9804V20.1551H146.242H149.14V27.9804V35.8057H151.893H154.647V18.4161V1.02653H151.893H149.14V7.98236V14.9382L148.473 15.0831C148.125 15.17 146.85 15.228 145.662 15.17L143.488 15.0831L143.401 8.04033L143.343 1.02653H140.59H137.837V18.4161Z" fill="#004A74"/>
<path d="M197.019 18.3292L197.106 35.6608L199.512 35.7478L201.888 35.8347V23.3142C201.888 16.4164 201.946 10.8517 202.004 10.9097C202.091 10.9676 202.932 16.2425 203.888 22.6186C204.874 28.9948 205.743 34.5595 205.83 34.9942C206.004 35.8057 206.033 35.8057 208.265 35.8057H210.525L210.844 33.9798C211.018 32.9944 211.858 27.3428 212.757 21.4593C213.626 15.5469 214.409 10.5909 214.467 10.446C214.554 10.2721 214.612 15.9237 214.612 22.9954L214.641 35.8347L217.191 35.7478L219.713 35.6608L219.8 18.3292L219.858 0.997622L215.887 1.08457L211.887 1.17152L210.264 12.7646C209.366 19.1407 208.583 24.6184 208.525 24.9083C208.467 25.2271 207.627 19.9812 206.67 13.2573L204.932 1.02661H200.932H196.903L197.019 18.3292Z" fill="#004A74"/>
<path d="M1.32102 32V21.0909H5.0071C5.86293 21.0909 6.5625 21.2454 7.10582 21.5543C7.6527 21.8597 8.05753 22.2734 8.32031 22.7955C8.5831 23.3175 8.71449 23.8999 8.71449 24.5426C8.71449 25.1854 8.5831 25.7695 8.32031 26.2951C8.06108 26.8207 7.6598 27.2397 7.11648 27.5522C6.57315 27.8612 5.87713 28.0156 5.02841 28.0156H2.38636V26.8438H4.9858C5.57173 26.8438 6.04226 26.7425 6.39737 26.5401C6.75249 26.3377 7.00994 26.0643 7.16974 25.7198C7.3331 25.3718 7.41477 24.9794 7.41477 24.5426C7.41477 24.1058 7.3331 23.7152 7.16974 23.3707C7.00994 23.0263 6.75071 22.7564 6.39205 22.5611C6.03338 22.3622 5.55753 22.2628 4.96449 22.2628H2.64205V32H1.32102ZM13.908 32.1705C13.1694 32.1705 12.5213 31.9947 11.9638 31.6431C11.4098 31.2915 10.9766 30.7997 10.6641 30.1676C10.3551 29.5355 10.2006 28.7969 10.2006 27.9517C10.2006 27.0994 10.3551 26.3555 10.6641 25.7198C10.9766 25.0842 11.4098 24.5906 11.9638 24.239C12.5213 23.8874 13.1694 23.7116 13.908 23.7116C14.6467 23.7116 15.293 23.8874 15.8469 24.239C16.4045 24.5906 16.8377 25.0842 17.1467 25.7198C17.4592 26.3555 17.6154 27.0994 17.6154 27.9517C17.6154 28.7969 17.4592 29.5355 17.1467 30.1676C16.8377 30.7997 16.4045 31.2915 15.8469 31.6431C15.293 31.9947 14.6467 32.1705 13.908 32.1705ZM13.908 31.0412C14.4691 31.0412 14.9308 30.8974 15.293 30.6097C15.6552 30.3221 15.9233 29.9439 16.0973 29.4751C16.2713 29.0064 16.3583 28.4986 16.3583 27.9517C16.3583 27.4048 16.2713 26.8952 16.0973 26.4229C15.9233 25.9506 15.6552 25.5689 15.293 25.2777C14.9308 24.9865 14.4691 24.8409 13.908 24.8409C13.3469 24.8409 12.8853 24.9865 12.5231 25.2777C12.1609 25.5689 11.8928 25.9506 11.7188 26.4229C11.5447 26.8952 11.4577 27.4048 11.4577 27.9517C11.4577 28.4986 11.5447 29.0064 11.7188 29.4751C11.8928 29.9439 12.1609 30.3221 12.5231 30.6097C12.8853 30.8974 13.3469 31.0412 13.908 31.0412ZM21.1097 32L18.6168 23.8182H19.9379L21.7063 30.0824H21.7915L23.5387 23.8182H24.881L26.6069 30.0611H26.6921L28.4606 23.8182H29.7816L27.2887 32H26.0529L24.2631 25.7145H24.1353L22.3455 32H21.1097ZM34.5956 32.1705C33.8073 32.1705 33.1272 31.9964 32.5555 31.6484C31.9873 31.2969 31.5487 30.8068 31.2398 30.1783C30.9344 29.5462 30.7817 28.8111 30.7817 27.973C30.7817 27.1349 30.9344 26.3963 31.2398 25.7571C31.5487 25.1143 31.9784 24.6136 32.5289 24.255C33.0828 23.8928 33.7291 23.7116 34.4678 23.7116C34.8939 23.7116 35.3147 23.7827 35.7302 23.9247C36.1457 24.0668 36.5239 24.2976 36.8648 24.6172C37.2057 24.9332 37.4774 25.3523 37.6798 25.8743C37.8822 26.3963 37.9834 27.0391 37.9834 27.8026V28.3352H31.6766V27.2486H36.705C36.705 26.7869 36.6127 26.375 36.428 26.0128C36.2469 25.6506 35.9877 25.3647 35.6503 25.1552C35.3165 24.9457 34.9223 24.8409 34.4678 24.8409C33.9671 24.8409 33.5338 24.9652 33.1681 25.2138C32.8058 25.4588 32.5271 25.7784 32.3318 26.1726C32.1365 26.5668 32.0388 26.9893 32.0388 27.4403V28.1648C32.0388 28.7827 32.1453 29.3065 32.3584 29.7362C32.575 30.1623 32.8751 30.4872 33.2586 30.7109C33.6421 30.9311 34.0878 31.0412 34.5956 31.0412C34.9259 31.0412 35.2242 30.995 35.4905 30.9027C35.7604 30.8068 35.993 30.6648 36.1883 30.4766C36.3836 30.2848 36.5345 30.0469 36.6411 29.7628L37.8556 30.1037C37.7277 30.5156 37.5129 30.8778 37.211 31.1903C36.9092 31.4993 36.5363 31.7408 36.0924 31.9148C35.6485 32.0852 35.1496 32.1705 34.5956 32.1705ZM39.8957 32V23.8182H41.1102V25.054H41.1954C41.3445 24.6491 41.6144 24.3207 42.0051 24.0685C42.3957 23.8164 42.836 23.6903 43.3261 23.6903C43.4184 23.6903 43.5338 23.6921 43.6723 23.6957C43.8108 23.6992 43.9156 23.7045 43.9866 23.7116V24.9901C43.944 24.9794 43.8463 24.9634 43.6936 24.9421C43.5445 24.9173 43.3865 24.9048 43.2195 24.9048C42.8218 24.9048 42.4667 24.9883 42.1542 25.1552C41.8453 25.3185 41.6002 25.5458 41.4191 25.837C41.2416 26.1246 41.1528 26.4531 41.1528 26.8224V32H39.8957ZM48.6581 32.1705C47.8698 32.1705 47.1897 31.9964 46.618 31.6484C46.0498 31.2969 45.6112 30.8068 45.3023 30.1783C44.9969 29.5462 44.8442 28.8111 44.8442 27.973C44.8442 27.1349 44.9969 26.3963 45.3023 25.7571C45.6112 25.1143 46.0409 24.6136 46.5914 24.255C47.1453 23.8928 47.7916 23.7116 48.5303 23.7116C48.9564 23.7116 49.3772 23.7827 49.7927 23.9247C50.2082 24.0668 50.5864 24.2976 50.9273 24.6172C51.2682 24.9332 51.5399 25.3523 51.7423 25.8743C51.9447 26.3963 52.0459 27.0391 52.0459 27.8026V28.3352H45.7391V27.2486H50.7675C50.7675 26.7869 50.6752 26.375 50.4905 26.0128C50.3094 25.6506 50.0502 25.3647 49.7128 25.1552C49.379 24.9457 48.9848 24.8409 48.5303 24.8409C48.0296 24.8409 47.5963 24.9652 47.2306 25.2138C46.8683 25.4588 46.5896 25.7784 46.3943 26.1726C46.199 26.5668 46.1013 26.9893 46.1013 27.4403V28.1648C46.1013 28.7827 46.2078 29.3065 46.4209 29.7362C46.6375 30.1623 46.9376 30.4872 47.3211 30.7109C47.7046 30.9311 48.1503 31.0412 48.6581 31.0412C48.9884 31.0412 49.2867 30.995 49.553 30.9027C49.8229 30.8068 50.0555 30.6648 50.2508 30.4766C50.4461 30.2848 50.597 30.0469 50.7036 29.7628L51.9181 30.1037C51.7902 30.5156 51.5754 30.8778 51.2735 31.1903C50.9717 31.4993 50.5988 31.7408 50.1549 31.9148C49.711 32.0852 49.2121 32.1705 48.6581 32.1705ZM57.0477 32.1705C56.3659 32.1705 55.7639 31.9982 55.2419 31.6538C54.7199 31.3058 54.3115 30.8157 54.0168 30.1836C53.722 29.5479 53.5747 28.7969 53.5747 27.9304C53.5747 27.071 53.722 26.3253 54.0168 25.6932C54.3115 25.0611 54.7217 24.5728 55.2472 24.2283C55.7728 23.8839 56.3801 23.7116 57.069 23.7116C57.6017 23.7116 58.0225 23.8004 58.3314 23.978C58.6439 24.152 58.8818 24.3509 59.0452 24.5746C59.2121 24.7947 59.3417 24.9759 59.434 25.1179H59.5406V21.0909H60.7977V32H59.5832V30.7429H59.434C59.3417 30.892 59.2103 31.0803 59.0399 31.3075C58.8694 31.5312 58.6262 31.7319 58.3101 31.9094C57.9941 32.0835 57.5732 32.1705 57.0477 32.1705ZM57.2181 31.0412C57.7224 31.0412 58.1485 30.9098 58.4965 30.647C58.8445 30.3807 59.1091 30.0131 59.2902 29.5444C59.4713 29.0721 59.5619 28.527 59.5619 27.9091C59.5619 27.2983 59.4731 26.7638 59.2955 26.3058C59.118 25.8441 58.8552 25.4854 58.5072 25.2298C58.1592 24.9705 57.7295 24.8409 57.2181 24.8409C56.6855 24.8409 56.2416 24.9776 55.8865 25.2511C55.5349 25.521 55.2703 25.8885 55.0928 26.3537C54.9188 26.8153 54.8318 27.3338 54.8318 27.9091C54.8318 28.4915 54.9205 29.0206 55.0981 29.4964C55.2792 29.9687 55.5455 30.3452 55.8971 30.6257C56.2522 30.9027 56.6926 31.0412 57.2181 31.0412ZM67.6638 32V21.0909H68.9209V25.1179H69.0274C69.1198 24.9759 69.2476 24.7947 69.411 24.5746C69.5779 24.3509 69.8158 24.152 70.1247 23.978C70.4372 23.8004 70.8598 23.7116 71.3925 23.7116C72.0814 23.7116 72.6887 23.8839 73.2142 24.2283C73.7398 24.5728 74.1499 25.0611 74.4447 25.6932C74.7394 26.3253 74.8868 27.071 74.8868 27.9304C74.8868 28.7969 74.7394 29.5479 74.4447 30.1836C74.1499 30.8157 73.7416 31.3058 73.2195 31.6538C72.6975 31.9982 72.0956 32.1705 71.4138 32.1705C70.8882 32.1705 70.4674 32.0835 70.1514 31.9094C69.8353 31.7319 69.5921 31.5312 69.4216 31.3075C69.2512 31.0803 69.1198 30.892 69.0274 30.7429H68.8783V32H67.6638ZM68.8996 27.9091C68.8996 28.527 68.9901 29.0721 69.1713 29.5444C69.3524 30.0131 69.6169 30.3807 69.9649 30.647C70.3129 30.9098 70.7391 31.0412 71.2433 31.0412C71.7689 31.0412 72.2075 30.9027 72.559 30.6257C72.9142 30.3452 73.1805 29.9687 73.358 29.4964C73.5392 29.0206 73.6297 28.4915 73.6297 27.9091C73.6297 27.3338 73.5409 26.8153 73.3634 26.3537C73.1894 25.8885 72.9248 25.521 72.5697 25.2511C72.2181 24.9776 71.776 24.8409 71.2433 24.8409C70.732 24.8409 70.3023 24.9705 69.9543 25.2298C69.6063 25.4854 69.3435 25.8441 69.1659 26.3058C68.9884 26.7638 68.8996 27.2983 68.8996 27.9091ZM77.3264 35.0682C77.1134 35.0682 76.9234 35.0504 76.7565 35.0149C76.5896 34.983 76.4742 34.951 76.4102 34.919L76.7298 33.8111C77.0352 33.8892 77.3051 33.9176 77.5395 33.8963C77.7739 33.875 77.9816 33.7702 78.1627 33.582C78.3474 33.3974 78.5161 33.0973 78.6688 32.6818L78.9031 32.0426L75.8776 23.8182H77.2412L79.4997 30.3381H79.585L81.8435 23.8182H83.2071L79.7341 33.1932C79.5779 33.6158 79.3843 33.9656 79.1535 34.2425C78.9227 34.5231 78.6546 34.7308 78.3492 34.8658C78.0473 35.0007 77.7064 35.0682 77.3264 35.0682Z" fill="#2A4763"/>
</svg>
